<svg version="1.1" id="Layer_1" xmlns="http://www.w3.org/2000/svg" x="0" y="0" viewBox="-192.7 216.5 210.6 109.8" xml:space="preserve"><style>.st0{fill:#EE1D23}</style><g id="_x23_f9222eff"><path class="st0" d="M-85.3 216.5h13.9c-.2 27.9.2 55.8-.1 83.7-4.6-.1-9.2 0-13.8 0 0-27.9.1-55.8 0-83.7zM-67.2 216.5c4.7-.1 9.3-.1 14-.1-.2 27.9.2 55.8-.2 83.7-4.4-.1-8.8-.1-13.3.1-.8-3.1-.5-6.2-.5-9.4 0-24.7.1-49.5 0-74.3zM-44.6 229.6c5.4-2.2 11.9 2.6 11.2 8.4-.1 6-7.9 9.9-12.8 6.3-5.6-3.4-4.6-12.7 1.6-14.7zM-19.8 252.2c7.5-4.8 17.7-3.1 24 2.9 0-1.4.1-2.9.1-4.3 4.5.3 9-.3 13.4.3.3 16.3.2 32.6 0 48.9-4.4.4-8.9 0-13.4.2-.1-1.5-.1-2.9-.1-4.4-3.6 3.3-8.1 6-13.2 5.8-8.8.5-16.7-5.7-20-13.5-5.4-12.1-2.5-28.7 9.2-35.9m9.4 10.6c-5.9 3.2-8.4 11-6.4 17.3 1.4 5.2 6.2 9.9 11.9 9.3 7.4-1 11.6-9.4 10.4-16.3-.8-7.3-8.7-14.1-15.9-10.3zM-192.7 250.8c5.3.2 10.7-.3 16 .4 3.7 9.3 7.5 18.5 11.6 27.7 4.1-9.4 8.1-18.9 12.8-28.1 3.4.1 6.9.1 10.3.1 1.6 0 3.2-.1 4.8-.1-11.6 25.3-23.6 50.3-35.4 75.5h-15.2c5-10.8 10.2-21.4 15.3-32.2.8-1.1.4-2.3-.2-3.4-6.7-13.2-13.4-26.5-20-39.9zM-133.3 251.5c4.5-1.3 9.3-.3 13.9-.7.5 9.4 0 18.8.2 28.2.3 3.2.5 6.9 3.1 9.2 2 2 5.1 1.8 7.7 1.3 3.9-1.3 5-5.9 5-9.5.1-9.5.2-19.1 0-28.6 4.6-1 9.4-.5 14-.3-.1 10.3.1 20.6-.1 30.9 0 6.3-2.7 12.9-8.2 16.4-6.3 3.9-14.3 3.9-21.4 2.4-7.1-1.4-12.6-7.6-13.5-14.8-1.2-11.4-.2-23-.7-34.5zM-48.6 251.2c4.6 0 9.3-.9 13.8.1.3 16.1-.1 32.3.2 48.5-4.6.9-9.3.2-13.9.5-.3-16.4 0-32.8-.1-49.1z"/></g></svg>