<svg xmlns="http://www.w3.org/2000/svg" width="74.224" height="38.735" viewBox="0 0 74.224 38.735">
  <g id="LOGO" transform="translate(192.7 -216.4)">
    <path id="Path_20" data-name="Path 20" d="M-154.846,216.435h4.9c-.07,9.834.07,19.667-.035,29.5-1.621-.035-3.243,0-4.864,0C-154.846,236.1-154.811,226.269-154.846,216.435Zm6.379,0c1.657-.035,3.278-.035,4.934-.035-.07,9.834.07,19.667-.07,29.5-1.551-.035-3.1-.035-4.688.035a13,13,0,0,1-.176-3.313C-148.467,233.917-148.431,225.176-148.467,216.435Zm7.966,4.617a2.954,2.954,0,0,1,3.948,2.961,2.937,2.937,0,0,1-4.511,2.22A2.947,2.947,0,0,1-140.5,221.052Zm8.741,7.966a7.037,7.037,0,0,1,8.459,1.022c0-.493.035-1.022.035-1.516,1.586.106,3.172-.106,4.723.106.106,5.745.07,11.49,0,17.235-1.551.141-3.137,0-4.723.07-.035-.529-.035-1.022-.035-1.551a6.666,6.666,0,0,1-4.652,2.044A7.528,7.528,0,0,1-135,241.671c-1.9-4.265-.881-10.115,3.243-12.653m3.313,3.736a5.272,5.272,0,0,0-2.256,6.1,4.19,4.19,0,0,0,4.194,3.278c2.608-.352,4.088-3.313,3.666-5.745C-123.125,233.811-125.91,231.415-128.447,232.754Zm-64.253-4.229c1.868.07,3.771-.106,5.639.141,1.3,3.278,2.643,6.52,4.089,9.763,1.445-3.313,2.855-6.661,4.511-9.9,1.2.035,2.432.035,3.63.035.564,0,1.128-.035,1.692-.035-4.089,8.917-8.318,17.729-12.477,26.611h-5.357c1.762-3.807,3.6-7.543,5.393-11.349a1.067,1.067,0,0,0-.07-1.2c-2.361-4.652-4.723-9.34-7.049-14.063Zm20.936.247c1.586-.458,3.278-.106,4.9-.247.176,3.313,0,6.626.07,9.939.106,1.128.176,2.432,1.093,3.243a2.962,2.962,0,0,0,2.714.458c1.375-.458,1.762-2.079,1.762-3.348.035-3.348.07-6.732,0-10.08a19.283,19.283,0,0,1,4.934-.106c-.035,3.63.035,7.261-.035,10.891a6.808,6.808,0,0,1-2.89,5.78c-2.22,1.375-5.04,1.375-7.543.846a6.114,6.114,0,0,1-4.758-5.216C-171.94,236.913-171.588,232.824-171.764,228.771Zm29.853-.106a22.426,22.426,0,0,1,4.864.035c.106,5.675-.035,11.384.07,17.094a37.943,37.943,0,0,1-4.9.176c-.106-5.78,0-11.561-.035-17.306Z" fill="#fff"/>
  </g>
</svg>